<?xml version="1.0" encoding="UTF-8"?>
<!DOCTYPE svg PUBLIC "-//W3C//DTD SVG 1.1//EN" "http://www.w3.org/Graphics/SVG/1.1/DTD/svg11.dtd">
<svg xmlns="http://www.w3.org/2000/svg" version="1.1" width="4000px" height="4000px" style="shape-rendering:geometricPrecision; text-rendering:geometricPrecision; image-rendering:optimizeQuality; fill-rule:evenodd; clip-rule:evenodd" xmlns:xlink="http://www.w3.org/1999/xlink">
<g><path style="opacity:1" fill="#252525" d="M -0.5,-0.5 C 1332.83,-0.5 2666.17,-0.5 3999.5,-0.5C 3999.5,1332.83 3999.5,2666.17 3999.5,3999.5C 2666.17,3999.5 1332.83,3999.5 -0.5,3999.5C -0.5,2666.17 -0.5,1332.83 -0.5,-0.5 Z"/></g>
<g><path style="opacity:1" fill="#fefefe" d="M 1604.5,548.5 C 1610.57,547.966 1616.24,549.133 1621.5,552C 1716.17,612.333 1810.83,672.667 1905.5,733C 1909.46,736.421 1912.29,740.588 1914,745.5C 1914.57,1640.83 1914.23,2536.17 1913,3431.5C 1905.58,3449.63 1893.08,3454.46 1875.5,3446C 1772.67,3380.08 1669.67,3314.42 1566.5,3249C 1560.69,3245.67 1555.53,3241.51 1551,3236.5C 1549.72,3234.28 1548.72,3231.95 1548,3229.5C 1547.83,3219 1547.67,3208.5 1547.5,3198C 1549.39,3083.84 1550.56,2969.67 1551,2855.5C 1547.92,2847.42 1542.42,2841.59 1534.5,2838C 1356,2724.58 1177.66,2610.92 999.5,2497C 987.752,2490.13 976.918,2491.29 967,2500.5C 921.333,2583.17 875.667,2665.83 830,2748.5C 820.72,2761.89 808.887,2764.72 794.5,2757C 687.833,2689 581.167,2621 474.5,2553C 461.241,2545.22 457.075,2534.06 462,2519.5C 466.92,2511.33 471.587,2502.99 476,2494.5C 846.919,1850.33 1217.59,1206 1588,561.5C 1591.94,555.048 1597.44,550.714 1604.5,548.5 Z"/></g>
<g><path style="opacity:1" fill="#fefefe" d="M 2385.5,548.5 C 2396.53,547.93 2405.03,552.263 2411,561.5C 2781.41,1206 3152.08,1850.33 3523,2494.5C 3527.41,2502.99 3532.08,2511.33 3537,2519.5C 3541.93,2534.06 3537.76,2545.22 3524.5,2553C 3417.83,2621 3311.17,2689 3204.5,2757C 3190.11,2764.72 3178.28,2761.89 3169,2748.5C 3123.33,2665.83 3077.67,2583.17 3032,2500.5C 3022.08,2491.29 3011.25,2490.13 2999.5,2497C 2821.34,2610.92 2643,2724.58 2464.5,2838C 2459.71,2841.12 2455.21,2844.62 2451,2848.5C 2449.72,2850.72 2448.72,2853.05 2448,2855.5C 2448.43,2969.67 2449.6,3083.84 2451.5,3198C 2451.33,3208.5 2451.17,3219 2451,3229.5C 2450.28,3231.95 2449.28,3234.28 2448,3236.5C 2443.47,3241.51 2438.31,3245.67 2432.5,3249C 2327.64,3315.93 2222.64,3382.6 2117.5,3449C 2101.86,3452.43 2091.36,3446.6 2086,3431.5C 2084.77,2536.17 2084.43,1640.83 2085,745.5C 2087.69,738.143 2092.52,732.643 2099.5,729C 2190.67,671.25 2281.67,613.25 2372.5,555C 2376.82,552.524 2381.15,550.357 2385.5,548.5 Z"/></g>
<g><path style="opacity:1" fill="#252525" d="M 1542.5,1469.5 C 1560.33,1468.17 1569.99,1476.33 1571.5,1494C 1567.81,1740.16 1564.31,1986.33 1561,2232.5C 1557.38,2243.9 1549.54,2249.9 1537.5,2250.5C 1532.8,2250.1 1528.46,2248.6 1524.5,2246C 1427,2183.42 1329.34,2121.08 1231.5,2059C 1222.86,2051.01 1220.69,2041.51 1225,2030.5C 1327.12,1845.09 1429.62,1659.93 1532.5,1475C 1535.77,1472.87 1539.1,1471.04 1542.5,1469.5 Z"/></g>
<g><path style="opacity:1" fill="#252525" d="M 2445.5,1469.5 C 2455.73,1468.07 2463.9,1471.4 2470,1479.5C 2571.08,1663.33 2672.41,1846.99 2774,2030.5C 2778.31,2041.51 2776.14,2051.01 2767.5,2059C 2669.66,2121.08 2572,2183.42 2474.5,2246C 2461.47,2253.12 2450.31,2250.95 2441,2239.5C 2440,2237.17 2439,2234.83 2438,2232.5C 2434.68,1986.33 2431.18,1740.16 2427.5,1494C 2427.62,1481.4 2433.62,1473.23 2445.5,1469.5 Z"/></g>
</svg>
